<?xml version="1.0" encoding="utf-8"?>
<!-- Generator: Adobe Illustrator 27.1.0, SVG Export Plug-In . SVG Version: 6.00 Build 0)  -->
<svg version="1.1" id="Ebene_1" xmlns="http://www.w3.org/2000/svg" xmlns:xlink="http://www.w3.org/1999/xlink" x="0px" y="0px"
	 viewBox="0 0 700 560.9" style="enable-background:new 0 0 700 560.9;" xml:space="preserve">
<g>
	<path d="M165.6,206.6c5.8,1,10.6-2.9,11.6-7.7C187.8,140,252.5,94.6,327.8,94.6c5.8,0,9.7-3.9,9.7-9.7c0-5.8-3.9-9.7-9.7-9.7
		c-85,0-158.3,51.2-169.9,119.7C156.9,200.8,160.8,205.6,165.6,206.6L165.6,206.6z"/>
	<path d="M619.4,285.8h-85.9c4.8-10.6,8.7-22.2,11.6-33.8h3.9c19.3,0,35.7-15.4,35.7-35.7c0-19.3-15.4-35.7-35.7-35.7H545
		C526.7,93.7,434,29,327.8,29S129.9,93.7,110.6,181.5h-4.8C86.4,181.5,70,197,70,217.2c0,19.3,15.4,35.7,35.7,35.7h3.9
		c7.7,33.8,25.1,63.7,52.1,89.8C183.9,449,279.5,531,393.5,531C523.8,531,629,424.8,629,295.4C629,289.6,625.2,285.8,619.4,285.8
		L619.4,285.8z M571.1,330.2c-4.8,23.2-13.5,45.4-27,64.7c-7.7,11.6-24.1,13.5-33.8,3.9l-93.7-93.7h132.3
		C563.4,305.1,574,317.7,571.1,330.2L571.1,330.2z M493.9,446.1c-20.3,13.5-41.5,22.2-64.7,27c-13.5,2.9-25.1-7.7-25.1-21.2V318.6
		l93.7,93.7C507.4,422.9,504.5,438.3,493.9,446.1L493.9,446.1z M383.8,451.9c0,13.5-12.6,24.1-25.1,21.2
		c-23.2-4.8-45.4-13.5-64.7-27c-11.6-7.7-13.5-23.2-3.9-33.8l93.7-93.7L383.8,451.9z M238,305.1h132.3l-93.7,93.7
		c-9.7,9.7-26.1,7.7-33.8-3.9c-13.5-20.3-22.2-41.5-27-64.7C213.9,317.7,224.5,305.1,238,305.1L238,305.1z M127.9,240.4
		c-1-4.8-4.8-7.7-9.7-7.7h-12.6c-8.7,0-16.4-6.8-16.4-16.4c0-8.7,6.8-16.4,16.4-16.4h12.6c4.8,0,8.7-2.9,9.7-7.7
		c13.5-82.1,100.4-143.9,199.9-143.9c100.4,0,186.3,61.8,200.8,143.9c1,4.8,4.8,7.7,9.7,7.7h12.6c8.7,0,16.4,6.8,16.4,16.4
		c0,8.7-6.8,16.4-16.4,16.4h-12.6c-4.8,0-8.7,2.9-9.7,7.7c-2.9,15.4-8.7,30.9-16.4,45.4l-344.7,0c-5.8,0-9.7,3.9-9.7,9.7V308
		C142.4,287.7,131.8,264.6,127.9,240.4L127.9,240.4z M393.5,511.7c-115.9,0-211.4-91.7-216.3-206.6h25.1c-5.8,8.7-7.7,19.3-5.8,29
		c4.8,26.1,14.5,50.2,29.9,71.4c7.7,11.6,21.2,19.3,37.7,18.3c-1,16.4,5.8,29.9,18.3,37.7c22.2,14.5,46.3,24.1,71.4,29.9
		c13.5,2.9,28-1.9,38.6-13.5c10.6,12.6,25.1,16.4,38.6,13.5c26.1-4.8,50.2-15.4,71.4-29.9c12.6-7.7,19.3-22.2,18.3-37.7
		c16.4,1,29.9-6.8,37.7-18.3c14.5-22.2,24.1-46.3,29.9-71.4c1.9-9.7,0-20.3-5.8-29h25.1C604.9,420,509.3,511.7,393.5,511.7
		L393.5,511.7z"/>
</g>
</svg>
